<svg width="20" height="20" viewBox="0 0 24 24" fill="none" xmlns="http://www.w3.org/2000/svg">
<path fill-rule="evenodd" clip-rule="evenodd" d="M11.03 20.03C10.8894 20.1704 10.6988 20.2493 10.5 20.2493C10.3012 20.2493 10.1106 20.1704 9.97 20.03L2.47 12.53C2.32955 12.3894 2.25066 12.1987 2.25066 12C2.25066 11.8012 2.32955 11.6106 2.47 11.47L9.97 3.96999C10.0387 3.8963 10.1215 3.8372 10.2135 3.79621C10.3055 3.75522 10.4048 3.73318 10.5055 3.7314C10.6062 3.72962 10.7062 3.74815 10.7996 3.78587C10.893 3.82359 10.9778 3.87973 11.049 3.95095C11.1203 4.02217 11.1764 4.10701 11.2141 4.20039C11.2518 4.29378 11.2704 4.39381 11.2686 4.49451C11.2668 4.59522 11.2448 4.69453 11.2038 4.78653C11.1628 4.87853 11.1037 4.96133 11.03 5.02999L4.81 11.25L21 11.25C21.1989 11.25 21.3897 11.329 21.5303 11.4697C21.671 11.6103 21.75 11.8011 21.75 12C21.75 12.1989 21.671 12.3897 21.5303 12.5303C21.3897 12.671 21.1989 12.75 21 12.75L4.81 12.75L11.03 18.97C11.1705 19.1106 11.2493 19.3012 11.2493 19.5C11.2493 19.6987 11.1705 19.8894 11.03 20.03Z" fill="white"/>
</svg>
