<svg width="55" height="55" viewBox="0 0 55 55" fill="none" xmlns="http://www.w3.org/2000/svg">
<rect width="55" height="55" rx="27.5" fill="#010B0C"/>
<path fill-rule="evenodd" clip-rule="evenodd" d="M26.03 35.03C25.8894 35.1704 25.6988 35.2493 25.5 35.2493C25.3012 35.2493 25.1106 35.1704 24.97 35.03L17.47 27.53C17.3295 27.3894 17.2507 27.1987 17.2507 27C17.2507 26.8012 17.3295 26.6106 17.47 26.47L24.97 18.97C25.0387 18.8963 25.1215 18.8372 25.2135 18.7962C25.3055 18.7552 25.4048 18.7332 25.5055 18.7314C25.6062 18.7296 25.7062 18.7481 25.7996 18.7859C25.893 18.8236 25.9778 18.8797 26.049 18.9509C26.1203 19.0222 26.1764 19.107 26.2141 19.2004C26.2518 19.2938 26.2704 19.3938 26.2686 19.4945C26.2668 19.5952 26.2448 19.6945 26.2038 19.7865C26.1628 19.8785 26.1037 19.9613 26.03 20.03L19.81 26.25L36 26.25C36.1989 26.25 36.3897 26.329 36.5303 26.4697C36.671 26.6103 36.75 26.8011 36.75 27C36.75 27.1989 36.671 27.3897 36.5303 27.5303C36.3897 27.671 36.1989 27.75 36 27.75L19.81 27.75L26.03 33.97C26.1705 34.1106 26.2493 34.3012 26.2493 34.5C26.2493 34.6987 26.1705 34.8894 26.03 35.03Z" fill="white"/>
</svg>
